<?xml version="1.0" standalone="no"?>
<!DOCTYPE svg PUBLIC "-//W3C//DTD SVG 20010904//EN"
 "http://www.w3.org/TR/2001/REC-SVG-20010904/DTD/svg10.dtd">
<svg version="1.0" xmlns="http://www.w3.org/2000/svg"
 width="252.000000pt" height="252.000000pt" viewBox="0 0 252.000000 252.000000"
 preserveAspectRatio="xMidYMid meet">
<metadata>
Created by potrace 1.14, written by Peter Selinger 2001-2017
</metadata>
<g transform="translate(0.000000,252.000000) scale(0.100000,-0.100000)"
fill="#000000" stroke="none">
<path d="M1231 2382 c-14 -32 -35 -79 -47 -107 -12 -27 -40 -95 -63 -150 -23
-55 -48 -113 -55 -130 -7 -16 -46 -108 -86 -202 -40 -95 -75 -171 -78 -168 -3
2 -12 0 -21 -4 -9 -5 -29 -11 -46 -14 -16 -3 -39 -8 -50 -11 -11 -3 -85 -21
-165 -41 -80 -20 -149 -38 -155 -39 -5 -1 -19 -5 -30 -9 -11 -3 -31 -8 -45
-11 -39 -8 -60 -13 -140 -34 -41 -12 -86 -23 -100 -26 -14 -3 -38 -9 -53 -13
l-29 -9 48 -39 c26 -22 52 -45 58 -50 6 -6 90 -78 186 -160 96 -82 180 -154
186 -160 6 -5 50 -43 98 -84 l87 -74 -6 -46 c-3 -25 -7 -62 -9 -81 -2 -19 -7
-53 -9 -75 -3 -22 -9 -65 -12 -95 -8 -68 -15 -127 -20 -160 -2 -14 -7 -54 -10
-90 -4 -36 -9 -73 -10 -82 -3 -15 -8 -52 -21 -176 -4 -41 -5 -41 125 35 53 32
108 64 122 73 63 36 383 227 422 252 53 33 62 34 133 2 60 -27 105 -46 114
-49 12 -4 63 -26 103 -44 23 -11 148 -65 277 -120 129 -56 243 -106 253 -112
11 -6 20 -9 22 -7 2 2 -21 107 -51 233 -30 127 -57 245 -59 264 -3 18 -7 37
-10 41 -3 4 -12 41 -21 81 -20 95 -19 92 -39 174 -9 39 -18 77 -20 86 -3 14
37 70 138 191 19 24 90 111 157 193 128 157 138 170 183 223 15 19 27 38 27
43 0 16 -85 51 -135 54 -41 3 -386 14 -578 18 l-47 1 -52 81 c-29 44 -78 120
-110 168 -32 49 -58 90 -58 92 0 2 -36 58 -80 124 -44 67 -80 123 -80 125 0 3
-108 167 -113 172 -1 1 -13 -23 -26 -54z"/>
</g>
</svg>
